<svg width="40.000000" height="32.000000" viewBox="0 0 40 32" fill="none" xmlns="http://www.w3.org/2000/svg" xmlns:xlink="http://www.w3.org/1999/xlink">
	<desc>
			Created with Pixso.
	</desc>
	<defs/>
	<rect id="icon-email" width="40.000000" height="32.000000" fill="#FFFFFF" fill-opacity="0"/>
	<path id="mail" d="M0.68457 3L39.3154 3C39.4971 3 39.6709 3.07324 39.7998 3.20361C39.9277 3.33398 40 3.51074 40 3.69531L40 28.3047C40 28.4893 39.9277 28.666 39.7998 28.7964C39.6709 28.9268 39.4971 29 39.3154 29L0.68457 29C0.50293 29 0.329102 28.9268 0.200195 28.7964C0.0722656 28.666 0 28.4893 0 28.3047L0 3.69531C0 3.51074 0.0722656 3.33398 0.200195 3.20361C0.329102 3.07324 0.50293 3 0.68457 3ZM30.4053 11.4795C30.4707 11.5415 30.5342 11.6023 30.5977 11.6606L37.6748 4.39038L2.32422 4.39038L20 22.5464L22.7773 19.6929C22.5469 19.0496 22.6973 18.3557 22.833 17.7336C22.9082 17.3865 22.9795 17.0588 22.9795 16.7822C22.9795 16.5056 22.9082 16.1777 22.833 15.8308C22.6768 15.1135 22.5 14.3003 22.9111 13.5796C23.334 12.8381 24.1279 12.5876 24.8281 12.3665C25.1514 12.2644 25.457 12.168 25.6758 12.0396C25.8799 11.9202 26.1045 11.7061 26.3428 11.4795C26.8574 10.9895 27.498 10.3799 28.374 10.3799C29.25 10.3799 29.8906 10.9895 30.4053 11.4795ZM33.8369 19.9846C33.6221 20.3611 33.3115 20.6108 32.9668 20.7947L38.6299 26.6123L38.6299 5.38745L31.8555 12.3464L31.9199 12.3665C32.6201 12.5876 33.4141 12.8381 33.8369 13.5796C34.248 14.3005 34.0713 15.1135 33.915 15.8308C33.8398 16.1777 33.7686 16.5056 33.7686 16.7822C33.7686 17.0588 33.8398 17.3865 33.915 17.7336C34.0713 18.4509 34.248 19.2639 33.8369 19.9846ZM1.37012 26.6116L11.7002 16L1.37012 5.38818L1.37012 26.6116ZM32.6514 19.2883C32.7949 19.0354 32.6846 18.5259 32.5771 18.0332C32.4893 17.6287 32.3984 17.2102 32.3984 16.782C32.3984 16.3538 32.4893 15.9355 32.5771 15.531C32.6846 15.0381 32.7949 14.5286 32.6514 14.2759C32.4971 14.0044 31.9971 13.8467 31.5127 13.6941C31.1318 13.5737 30.7373 13.4492 30.3857 13.2429C30.0459 13.0435 29.752 12.7639 29.4678 12.4937C29.0771 12.1216 28.708 11.7703 28.374 11.7703C28.04 11.7703 27.6709 12.1216 27.2793 12.4937C26.9961 12.7639 26.7021 13.0435 26.3623 13.2429C26.0107 13.4495 25.6162 13.574 25.2344 13.6943C24.751 13.8469 24.251 14.0046 24.0967 14.2759C23.9521 14.5288 24.0635 15.0383 24.1709 15.531L24.1709 15.531C24.2588 15.9355 24.3496 16.354 24.3496 16.7822C24.3496 17.2102 24.2588 17.6284 24.1709 18.033L24.1709 18.0332C24.0635 18.5261 23.9521 19.0354 24.0967 19.2883C24.251 19.5596 24.751 19.7173 25.2344 19.8699C25.6162 19.9902 26.0107 20.1147 26.3623 20.321C26.7021 20.5205 26.9961 20.8 27.2793 21.0703C27.6709 21.4424 28.04 21.7939 28.374 21.7939C28.708 21.7939 29.0771 21.4426 29.4678 21.0703C29.752 20.8 30.0459 20.5208 30.3857 20.321C30.7373 20.1147 31.1318 19.9902 31.5127 19.8699C31.9971 19.7173 32.4971 19.5596 32.6514 19.2883ZM24.8867 16.782C24.8867 14.8303 26.4512 13.2424 28.374 13.2424C30.2969 13.2424 31.8613 14.8303 31.8613 16.782C31.8613 18.7336 30.2969 20.3215 28.374 20.3215C26.4512 20.3215 24.8867 18.7336 24.8867 16.782ZM26.2568 16.782C26.2568 17.967 27.2061 18.9312 28.374 18.9312C29.542 18.9312 30.4912 17.967 30.4912 16.782C30.4912 15.5969 29.542 14.6328 28.374 14.6328C27.2061 14.6328 26.2568 15.5969 26.2568 16.782ZM19.5127 24.0242L12.6631 16.989L2.32422 27.6094L37.6748 27.6094L31.5498 21.3179C31.3691 21.3806 31.2041 21.4465 31.0723 21.5244C30.8682 21.644 30.6436 21.8579 30.4053 22.0847C29.8906 22.5747 29.25 23.1843 28.374 23.1843C27.498 23.1843 26.8574 22.5747 26.3428 22.0847C26.1045 21.8582 25.8799 21.644 25.6758 21.5247C25.457 21.3962 25.1514 21.2998 24.8281 21.1975C24.4492 21.0781 24.0439 20.9495 23.6846 20.7397L20.4873 24.0242C20.4229 24.0896 20.3477 24.1416 20.2637 24.177C20.1797 24.2124 20.0898 24.2307 20 24.2307C19.9092 24.2307 19.8193 24.2124 19.7354 24.177C19.6523 24.1416 19.5762 24.0896 19.5127 24.0242Z" fill="#F1CDB3" fill-opacity="1.000000" fill-rule="evenodd"/>
</svg>
