<svg width="40.000000" height="32.000000" viewBox="0 0 40 32" fill="none" xmlns="http://www.w3.org/2000/svg" xmlns:xlink="http://www.w3.org/1999/xlink">
	<desc>
			Created with Pixso.
	</desc>
	<defs/>
	<rect id="icon-phone" width="39.999996" height="32.000000" fill="#FFFFFF" fill-opacity="0"/>
	<path id="phone" d="M37.5098 2.90479L39.9463 8.89551C40.0127 9.06055 40.0176 9.24512 39.959 9.41333L38.9844 12.209C38.9277 12.3713 38.8164 12.5076 38.6699 12.5925C38.5234 12.6775 38.3516 12.7056 38.1865 12.6719L28.9307 10.7749C28.791 10.7463 28.6641 10.675 28.5654 10.5708C28.4658 10.4663 28.4004 10.3335 28.377 10.1899L27.5752 5.32593C23.1631 4.18994 16.8369 4.18994 12.4248 5.32593L11.623 10.1899C11.5996 10.3335 11.5332 10.4661 11.4346 10.5706C11.3359 10.675 11.208 10.7461 11.0693 10.7747L1.8125 12.6716C1.64746 12.7056 1.47656 12.6775 1.33008 12.5925C1.18359 12.5076 1.07129 12.3713 1.01465 12.209L0.0410156 9.41333C-0.0175781 9.24512 -0.0126953 9.0603 0.0537109 8.89551L2.49023 2.90479C2.53125 2.80249 2.5957 2.71143 2.67773 2.63867C2.75879 2.56592 2.85645 2.51367 2.96094 2.48584L5.88867 1.70801C14.4609 -0.569336 25.5391 -0.569336 34.1113 1.70801L37.0391 2.48584C37.1436 2.51367 37.2412 2.56592 37.3223 2.63867C37.4043 2.71143 37.4688 2.80249 37.5098 2.90479ZM11.2881 4.26782C11.3779 4.16626 11.4932 4.09326 11.6221 4.05688C16.3984 2.70605 23.6016 2.70605 28.3779 4.05688C28.5068 4.09326 28.6221 4.1665 28.7119 4.26782C28.8018 4.36938 28.8604 4.49487 28.8828 4.62964L29.1523 6.26465L38.1406 8.1897L36.3496 3.78711L33.7598 3.09888C25.4004 0.878174 14.5996 0.878418 6.24121 3.09888L3.65039 3.78711L1.86035 8.1897L10.8477 6.26465L11.1172 4.62964C11.1396 4.49487 11.1992 4.36938 11.2881 4.26782ZM33.0996 12.7642C33.1953 12.8613 33.2607 12.9841 33.29 13.1187L36.5322 28.0879C36.543 28.1389 36.5488 28.1912 36.5488 28.2434L36.5488 31.2817C36.5488 31.4722 36.4746 31.6548 36.3438 31.7896C36.2119 31.9243 36.0332 32 35.8477 32L4.15234 32C3.9668 32 3.78809 31.9243 3.65625 31.7896C3.52539 31.6548 3.45117 31.4722 3.45117 31.2817L3.45117 28.2434C3.45117 28.1912 3.45703 28.1389 3.46777 28.0879L6.70996 13.1187C6.73926 12.9841 6.80566 12.8613 6.90039 12.7642C6.99609 12.6672 7.11621 12.6006 7.24805 12.5718L12.0225 11.5259L12.624 7.51392C12.6494 7.34424 12.7334 7.1897 12.8604 7.07788C12.9873 6.96606 13.1494 6.90454 13.3164 6.90454L15.1865 6.90454L15.1865 5.96387C15.1865 5.56714 15.5 5.24561 15.8867 5.24561C16.2744 5.24561 16.5879 5.56714 16.5879 5.96387L16.5879 6.90454L23.4121 6.90454L23.4121 5.96387C23.4121 5.56714 23.7256 5.24561 24.1133 5.24561C24.5 5.24561 24.8145 5.56714 24.8145 5.96387L24.8145 6.90454L26.6836 6.90454C26.8506 6.90454 27.0127 6.96606 27.1396 7.07788C27.2676 7.1897 27.3506 7.34424 27.376 7.51392L27.9775 11.5259L32.752 12.5718C32.8838 12.6006 33.0039 12.6672 33.0996 12.7642ZM1.63184 9.7063L2.13184 11.1411L10.3213 9.46289L10.5977 7.78613L1.63184 9.7063ZM29.6787 9.46289L37.8682 11.1411L38.3682 9.7063L29.4023 7.78613L29.6787 9.46289ZM12.7881 12.8274L7.98145 13.8801L5.02637 27.5251L34.9736 27.5251L32.0186 13.8801L27.2119 12.8274C27.0723 12.7969 26.9453 12.7239 26.8477 12.6177C26.751 12.5117 26.6865 12.3779 26.665 12.2339L26.082 8.34131L13.918 8.34131L13.335 12.2339C13.3135 12.3779 13.25 12.5117 13.1523 12.6177C13.0547 12.7239 12.9277 12.7969 12.7881 12.8274ZM20 26.1606C24.1494 26.1606 27.5244 22.7017 27.5244 18.45C27.5244 14.1982 24.1494 10.7393 20 10.7393C15.8506 10.7393 12.4756 14.1982 12.4756 18.45C12.4756 22.7017 15.8506 26.1606 20 26.1606ZM20 12.176C23.376 12.176 26.123 14.9905 26.123 18.45C26.123 21.9094 23.376 24.7239 20 24.7239C16.624 24.7239 13.877 21.9094 13.877 18.45C13.877 14.9905 16.624 12.176 20 12.176ZM22.6689 18.4497C22.6689 19.9578 21.4717 21.1848 20 21.1848C18.5283 21.1848 17.3311 19.9578 17.3311 18.4497C17.3311 16.9417 18.5283 15.7146 20 15.7146C21.4717 15.7146 22.6689 16.9417 22.6689 18.4497ZM21.2666 18.4497C21.2666 17.7339 20.6982 17.1514 20 17.1514C19.3018 17.1514 18.7334 17.7339 18.7334 18.4497C18.7334 19.1655 19.3018 19.748 20 19.748C20.6982 19.748 21.2666 19.1655 21.2666 18.4497ZM9.11133 28.9619L4.85352 28.9619L4.85352 30.5632L8.20801 30.5632L9.11133 28.9619ZM10.8936 30.5632L11.7969 28.9619L10.7305 28.9619L9.82812 30.5632L10.8936 30.5632ZM28.6719 28.9619L13.416 28.9619L12.5127 30.5632L27.7686 30.5632L28.6719 28.9619ZM30.292 28.9619L29.3887 30.5632L35.1465 30.5632L35.1465 28.9619L30.292 28.9619Z" fill="#F1CDB3" fill-opacity="1.000000" fill-rule="evenodd"/>
</svg>
