<svg width="22.000000" height="32.000000" viewBox="0 0 22 32" fill="none" xmlns="http://www.w3.org/2000/svg" xmlns:xlink="http://www.w3.org/1999/xlink">
	<desc>
			Created with Pixso.
	</desc>
	<defs/>
	<rect id="icon-marker" width="22.000000" height="32.000000" fill="#FFFFFF" fill-opacity="0"/>
	<path id="pin" d="M0 10.6667C0 4.78516 4.93457 0 11 0C17.0654 0 22 4.78516 22 10.6665C22 12.4321 21.5449 14.1829 20.6826 15.7305L11.6016 31.6562C11.4805 31.8684 11.25 32 11 32C10.75 32 10.5195 31.8684 10.3984 31.6562L1.32031 15.7356C0.455078 14.1829 0 12.4324 0 10.6667ZM11 29.9558L19.4766 15.0906C20.2266 13.7434 20.625 12.2117 20.625 10.6667C20.625 5.52026 16.3076 1.3335 11 1.3335C5.69238 1.3335 1.375 5.52026 1.375 10.6667C1.375 12.2117 1.77344 13.7434 2.52734 15.0964L11 29.9558ZM5.5 10.6665C5.5 7.72583 7.96777 5.33325 11 5.33325C14.0322 5.33325 16.5 7.72583 16.5 10.6667C16.5 13.6074 14.0322 16 11 16C7.96777 16 5.5 13.6074 5.5 10.6665ZM6.875 10.6667C6.875 12.8723 8.72559 14.6667 11 14.6667C13.2744 14.6667 15.125 12.8723 15.125 10.6667C15.125 8.46094 13.2744 6.66675 11 6.66675C8.72559 6.66675 6.875 8.46094 6.875 10.6667Z" fill="#F1CDB3" fill-opacity="1.000000" fill-rule="evenodd"/>
</svg>
