<svg width="184.000000" height="60.000000" viewBox="0 0 184 60" fill="none" xmlns="http://www.w3.org/2000/svg" xmlns:xlink="http://www.w3.org/1999/xlink">
	<desc>
			Created with Pixso.
	</desc>
	<defs/>
	<path id="Subtitile" d="M5.74561 53.9155L4.58398 54.0171C4.60091 54.6392 4.77018 55.1978 5.0918 55.6929Q5.26467 55.9533 5.48281 56.1677Q5.88142 56.5594 6.43115 56.7974C7.00244 57.0428 7.70915 57.1655 8.55127 57.1655Q9.54785 57.1655 10.3413 56.8037C10.8745 56.5583 11.2829 56.2176 11.5664 55.7817C11.8499 55.3416 11.9917 54.874 11.9917 54.3789C11.9917 53.8796 11.8626 53.4395 11.6045 53.0586Q11.2173 52.481 10.4048 52.1064Q9.84619 51.8525 8.3418 51.5161Q6.84375 51.1733 6.48828 50.8496C6.24707 50.6338 6.12646 50.3587 6.12646 50.0244C6.12646 49.6393 6.29574 49.3114 6.63428 49.0405C6.97705 48.7655 7.52083 48.6279 8.26562 48.6279Q9.33838 48.6279 9.88428 49.0786Q9.96513 49.1446 10.0362 49.2198Q10.4505 49.6585 10.5317 50.4116L11.7124 50.3228Q11.6904 49.7546 11.4789 49.2689Q11.3856 49.0547 11.2554 48.8564Q11.1673 48.7224 11.0635 48.602Q10.6658 48.1406 10.0366 47.8789C9.51188 47.6546 8.90462 47.5425 8.21484 47.5425Q7.27539 47.5425 6.50732 47.8599Q5.86398 48.1257 5.47894 48.6009Q5.40429 48.693 5.33936 48.793Q5.09821 49.1604 5.00248 49.5625Q4.93945 49.8272 4.93945 50.1069Q4.93945 50.5223 5.07534 50.887Q5.14919 51.0853 5.26318 51.2686Q5.59326 51.7827 6.25977 52.1318C6.60254 52.3138 7.20133 52.5085 8.05615 52.7158C8.91097 52.9189 9.46322 53.0692 9.71289 53.1665Q10.2969 53.3887 10.5508 53.7188C10.7201 53.9346 10.8047 54.1885 10.8047 54.4805Q10.8047 54.6379 10.7692 54.787Q10.7074 55.0464 10.5381 55.2803Q10.2778 55.6421 9.73828 55.8516Q9.19873 56.061 8.49414 56.061Q7.70068 56.061 7.06592 55.7881Q6.43115 55.5088 6.12646 55.0645C5.92757 54.764 5.80062 54.381 5.74561 53.9155ZM60.3697 51.1543L60.3697 57.0068L61.506 57.0068L61.506 51.1543L62.8199 51.1543L62.8199 50.2656L61.506 50.2656L61.506 49.6436C61.506 49.2373 61.5779 48.9601 61.7218 48.812C61.8657 48.6639 62.1111 48.5898 62.4581 48.5898C62.6697 48.5898 62.894 48.611 63.131 48.6533L63.3023 47.6567Q62.7184 47.5425 62.2359 47.5425C61.7366 47.5425 61.3473 47.6356 61.068 47.8218C60.7929 48.0037 60.6004 48.2428 60.4903 48.5391C60.4099 48.7591 60.3697 49.0955 60.3697 49.5483L60.3697 50.2656L59.3605 50.2656L59.3605 51.1543L60.3697 51.1543ZM14.8278 47.7012L14.8278 57.0068L15.9704 57.0068L15.9704 53.3188Q15.9704 52.5254 16.1608 52.0747C16.2878 51.7743 16.4994 51.5373 16.7956 51.3638C17.0961 51.186 17.4156 51.0972 17.7541 51.0972Q18.3243 51.0972 18.6753 51.3746Q18.7424 51.4276 18.8015 51.4907C19.0511 51.7489 19.176 52.1636 19.176 52.7349L19.176 57.0068L20.3186 57.0068L20.3186 52.7349C20.3186 52.0747 20.2382 51.5711 20.0773 51.2241C19.9208 50.8771 19.6584 50.6063 19.2902 50.4116C18.9221 50.2127 18.4883 50.1133 17.989 50.1133Q17.3874 50.1133 16.8879 50.3391Q16.3754 50.5707 15.9704 51.04L15.9704 47.7012L14.8278 47.7012ZM31.8751 47.7012L31.8751 57.0068L33.0177 57.0068L33.0177 47.7012L31.8751 47.7012ZM118.814 47.7012L118.814 49.0151L119.956 49.0151L119.956 47.7012L118.814 47.7012ZM136.552 47.7012L136.552 57.0068L140.1 57.0068C140.693 57.0068 141.192 56.9561 141.598 56.8545C142.009 56.7487 142.349 56.5942 142.62 56.3911C142.891 56.188 143.117 55.9002 143.299 55.5278C143.486 55.1512 143.579 54.745 143.579 54.3091C143.579 53.7674 143.426 53.2977 143.122 52.8999Q143.071 52.8332 143.016 52.7708Q142.577 52.2755 141.827 52.0557C142.263 51.8398 142.588 51.5563 142.804 51.2051Q143.005 50.8784 143.081 50.5248Q143.128 50.3082 143.128 50.0815C143.128 49.6541 143.005 49.2458 142.76 48.8564Q142.597 48.5908 142.376 48.3881Q142.107 48.1404 141.75 47.9868C141.323 47.7964 140.754 47.7012 140.043 47.7012L136.552 47.7012ZM38.7547 56.9941L38.5896 55.9849C38.3823 56.0145 38.2151 56.0293 38.0882 56.0293C37.9189 56.0293 37.7877 56.0018 37.6946 55.9468C37.6058 55.8918 37.5402 55.8177 37.4979 55.7246Q37.4407 55.585 37.4407 55.0962L37.4407 51.1543L38.5896 51.1543L38.5896 50.2656L37.4407 50.2656L37.4407 47.9106L36.3045 48.5962L36.3045 50.2656L35.4666 50.2656L35.4666 51.1543L36.3045 51.1543L36.3045 55.0327C36.3045 55.7183 36.351 56.1689 36.4441 56.3848C36.5372 56.5964 36.698 56.7677 36.9266 56.8989C37.1551 57.0301 37.4767 57.0957 37.8914 57.0957C38.1453 57.0957 38.4331 57.0618 38.7547 56.9941ZM103.831 56.9941L103.666 55.9849C103.458 56.0145 103.291 56.0293 103.164 56.0293C102.995 56.0293 102.864 56.0018 102.771 55.9468C102.682 55.8918 102.616 55.8177 102.574 55.7246Q102.517 55.585 102.517 55.0962L102.517 51.1543L103.666 51.1543L103.666 50.2656L102.517 50.2656L102.517 47.9106L101.381 48.5962L101.381 50.2656L100.543 50.2656L100.543 51.1543L101.381 51.1543L101.381 55.0327C101.381 55.7183 101.427 56.1689 101.52 56.3848C101.613 56.5964 101.774 56.7677 102.003 56.8989C102.231 57.0301 102.553 57.0957 102.968 57.0957C103.221 57.0957 103.509 57.0618 103.831 56.9941ZM165.423 56.9941L165.258 55.9849C165.051 56.0145 164.884 56.0293 164.757 56.0293C164.588 56.0293 164.456 56.0018 164.363 55.9468C164.275 55.8918 164.209 55.8177 164.167 55.7246Q164.109 55.585 164.109 55.0962L164.109 51.1543L165.258 51.1543L165.258 50.2656L164.109 50.2656L164.109 47.9106L162.973 48.5962L162.973 50.2656L162.135 50.2656L162.135 51.1543L162.973 51.1543L162.973 55.0327C162.973 55.7183 163.02 56.1689 163.113 56.3848C163.206 56.5964 163.367 56.7677 163.595 56.8989C163.824 57.0301 164.145 57.0957 164.56 57.0957C164.814 57.0957 165.102 57.0618 165.423 56.9941ZM139.795 51.6113L137.783 51.6113L137.783 48.7993L139.643 48.7993C140.312 48.7993 140.784 48.8438 141.059 48.9326C141.334 49.0173 141.545 49.1781 141.693 49.415C141.841 49.6478 141.916 49.9186 141.916 50.2275C141.916 50.5534 141.835 50.8242 141.674 51.04Q141.663 51.0562 141.65 51.0718Q141.416 51.3707 140.97 51.5034C140.733 51.5754 140.341 51.6113 139.795 51.6113ZM29.1596 54.9819L27.9789 54.8359Q27.7187 55.5596 27.2743 55.8896C26.9781 56.1097 26.6205 56.2197 26.2016 56.2197Q25.7348 56.2197 25.3534 56.0393Q25.045 55.8934 24.7924 55.6294C24.4158 55.2358 24.2063 54.6688 24.164 53.9282L29.1913 53.9282C29.1955 53.7928 29.1977 53.6912 29.1977 53.6235Q29.1977 52.012 28.3991 51.0984Q28.3704 51.0656 28.3407 51.0337Q28.009 50.6774 27.603 50.459Q26.9604 50.1133 26.1317 50.1133Q25.2517 50.1133 24.5784 50.4863Q24.1833 50.7053 23.8593 51.0527Q23.8256 51.0888 23.7933 51.126Q22.9833 52.0575 22.9833 53.6934Q22.9833 55.2371 23.7444 56.1372Q23.7939 56.1957 23.8466 56.2515C24.4263 56.8566 25.2092 57.1592 26.1952 57.1592C26.9781 57.1592 27.6213 56.9688 28.1249 56.5879C28.6285 56.207 28.9734 55.6717 29.1596 54.9819ZM46.8086 54.9819L45.6279 54.8359Q45.3677 55.5596 44.9233 55.8896C44.6271 56.1097 44.2695 56.2197 43.8506 56.2197Q43.3838 56.2197 43.0025 56.0393Q42.694 55.8934 42.4414 55.6294C42.0648 55.2358 41.8553 54.6688 41.813 53.9282L46.8403 53.9282C46.8446 53.7928 46.8467 53.6912 46.8467 53.6235Q46.8467 52.012 46.0482 51.0984Q46.0195 51.0656 45.9897 51.0337Q45.658 50.6774 45.252 50.459Q44.6094 50.1133 43.7808 50.1133C42.8498 50.1133 42.0923 50.4264 41.5083 51.0527Q41.4747 51.0888 41.4423 51.126Q40.6323 52.0575 40.6323 53.6934C40.6323 54.7894 40.9201 55.6421 41.4956 56.2515C42.0754 56.8566 42.8582 57.1592 43.8442 57.1592C44.6271 57.1592 45.2703 56.9688 45.7739 56.5879C46.2775 56.207 46.6224 55.6717 46.8086 54.9819ZM49.5368 50.2656L49.5368 57.0068L50.6794 57.0068L50.6794 53.4775Q50.6794 52.7539 50.8698 52.1445C50.9545 51.8779 51.0962 51.6706 51.2951 51.5225C51.494 51.3701 51.7183 51.2939 51.968 51.2939Q52.3869 51.2939 52.8059 51.5415L53.1994 50.4814C52.8016 50.236 52.4102 50.1133 52.0251 50.1133C51.7585 50.1133 51.5131 50.1895 51.2888 50.3418C51.0687 50.4941 50.8275 50.8094 50.5651 51.2876L50.5651 50.2656L49.5368 50.2656ZM65.6307 50.8623C64.9367 51.4632 64.5896 52.3879 64.5896 53.6362C64.5896 54.7746 64.8795 55.6463 65.4593 56.2515C66.0433 56.8566 66.8071 57.1592 67.7508 57.1592C68.339 57.1592 68.8807 57.0216 69.3758 56.7466C69.8751 56.4715 70.2539 56.0864 70.512 55.5913C70.7744 55.092 70.9056 54.4085 70.9056 53.541C70.9056 52.4704 70.6115 51.6325 70.0232 51.0273C69.435 50.418 68.6775 50.1133 67.7508 50.1133C66.9171 50.1133 66.2104 50.363 65.6307 50.8623ZM73.5386 50.2656L73.5386 57.0068L74.6812 57.0068L74.6812 53.4775Q74.6812 52.7539 74.8716 52.1445C74.9562 51.8779 75.098 51.6706 75.2969 51.5225C75.4958 51.3701 75.7201 51.2939 75.9697 51.2939Q76.3887 51.2939 76.8076 51.5415L77.2012 50.4814C76.8034 50.236 76.4119 50.1133 76.0269 50.1133C75.7603 50.1133 75.5148 50.1895 75.2905 50.3418C75.0705 50.4941 74.8293 50.8094 74.5669 51.2876L74.5669 50.2656L73.5386 50.2656ZM84.0985 50.2656L84.0985 59.5903L85.2411 59.5903L85.2411 56.3086Q85.244 56.3122 85.2469 56.3158Q85.5375 56.6791 85.9838 56.918C86.2885 57.0788 86.6312 57.1592 87.0121 57.1592Q87.2471 57.1592 87.4751 57.1195Q88.0049 57.0274 88.4975 56.7212C88.9714 56.425 89.3311 56.0018 89.5766 55.4517C89.8262 54.8973 89.9511 54.2752 89.9511 53.5854C89.9511 52.9422 89.8389 52.3519 89.6146 51.8145C89.3904 51.2728 89.0582 50.8538 88.6181 50.5576C88.178 50.2614 87.6702 50.1133 87.0946 50.1133Q86.4345 50.1133 85.9711 50.3735C85.6622 50.5428 85.385 50.7988 85.1395 51.1416L85.1395 50.2656L84.0985 50.2656ZM98.4303 54.9819L97.2496 54.8359Q96.9894 55.5596 96.545 55.8896C96.2488 56.1097 95.8912 56.2197 95.4723 56.2197Q95.0055 56.2197 94.6241 56.0393Q94.3157 55.8933 94.0631 55.6294C93.6865 55.2358 93.477 54.6688 93.4347 53.9282L98.462 53.9282C98.4662 53.7928 98.4684 53.6912 98.4684 53.6235Q98.4684 52.012 97.6698 51.0984Q97.6412 51.0656 97.6114 51.0337Q97.2797 50.6774 96.8737 50.459Q96.2311 50.1133 95.4024 50.1133C94.4715 50.1133 93.714 50.4264 93.13 51.0527Q93.0964 51.0888 93.064 51.126Q92.254 52.0575 92.254 53.6934C92.254 54.7894 92.5418 55.6421 93.1173 56.2515C93.697 56.8566 94.4799 57.1592 95.4659 57.1592C96.2488 57.1592 96.892 56.9688 97.3956 56.5879C97.8992 56.207 98.2441 55.6717 98.4303 54.9819ZM106.762 54.8169L105.632 54.9946Q105.804 55.961 106.377 56.4999Q106.44 56.5592 106.508 56.6133C106.97 56.9772 107.638 57.1592 108.514 57.1592C109.043 57.1592 109.517 57.0682 109.936 56.8862C110.355 56.7 110.674 56.4398 110.895 56.1055C111.119 55.7669 111.231 55.4072 111.231 55.0264C111.231 54.637 111.14 54.3112 110.958 54.0488C110.776 53.7865 110.524 53.5876 110.203 53.4521C109.885 53.3125 109.322 53.1348 108.514 52.9189C107.956 52.7666 107.619 52.6693 107.505 52.627Q107.207 52.5063 107.067 52.3223C106.974 52.2038 106.927 52.0705 106.927 51.9224C106.927 51.6896 107.039 51.4865 107.264 51.313Q107.6 51.0527 108.387 51.0527Q109.054 51.0527 109.416 51.3447C109.661 51.5394 109.809 51.8102 109.86 52.1572L110.977 52.0049C110.905 51.569 110.774 51.222 110.583 50.9639C110.393 50.7015 110.097 50.4941 109.695 50.3418Q109.098 50.1133 108.305 50.1133Q107.778 50.1133 107.314 50.2529C107.01 50.3418 106.769 50.4518 106.591 50.583C106.354 50.7523 106.166 50.966 106.026 51.2241C105.89 51.478 105.823 51.7552 105.823 52.0557Q105.823 52.3527 105.912 52.6201Q105.971 52.7983 106.07 52.9634C106.24 53.2342 106.485 53.4479 106.807 53.6045C107.132 53.7568 107.714 53.9388 108.552 54.1504C109.174 54.307 109.564 54.436 109.72 54.5376C109.944 54.6857 110.057 54.8888 110.057 55.147C110.057 55.4347 109.93 55.6865 109.676 55.9023C109.422 56.1139 109.033 56.2197 108.508 56.2197Q107.727 56.2197 107.289 55.8579C107.001 55.6167 106.826 55.2697 106.762 54.8169ZM123.002 50.2656L123.002 57.0068L124.145 57.0068L124.145 53.3252C124.145 52.4619 124.32 51.8758 124.671 51.5669C125.027 51.258 125.448 51.1035 125.935 51.1035C126.239 51.1035 126.504 51.1733 126.728 51.313Q126.95 51.4443 127.084 51.6366Q127.157 51.7418 127.204 51.8652Q127.338 52.208 127.338 52.9062L127.338 57.0068L128.48 57.0068L128.48 52.8618C128.48 52.3328 128.459 51.9626 128.417 51.751C128.349 51.4251 128.23 51.1437 128.061 50.9067C127.892 50.6698 127.636 50.4793 127.293 50.3354C126.955 50.1873 126.582 50.1133 126.176 50.1133C125.241 50.1133 124.525 50.4836 124.03 51.2241L124.03 50.2656L123.002 50.2656ZM147.043 50.8623C146.349 51.4632 146.002 52.3879 146.002 53.6362C146.002 54.7746 146.292 55.6463 146.872 56.2515C147.456 56.8566 148.22 57.1592 149.163 57.1592C149.751 57.1592 150.293 57.0216 150.788 56.7466C151.288 56.4715 151.666 56.0864 151.925 55.5913C152.187 55.092 152.318 54.4085 152.318 53.541C152.318 52.4704 152.024 51.6325 151.436 51.0273C150.848 50.418 150.09 50.1133 149.163 50.1133C148.33 50.1133 147.623 50.363 147.043 50.8623ZM155.637 54.8169L154.507 54.9946Q154.678 55.961 155.252 56.4999Q155.315 56.5592 155.383 56.6133C155.844 56.9772 156.513 57.1592 157.389 57.1592C157.918 57.1592 158.392 57.0682 158.81 56.8862C159.229 56.7 159.549 56.4398 159.769 56.1055C159.993 55.7669 160.105 55.4072 160.105 55.0264C160.105 54.637 160.014 54.3112 159.832 54.0488C159.65 53.7865 159.399 53.5876 159.077 53.4521C158.76 53.3125 158.197 53.1348 157.389 52.9189C156.83 52.7666 156.494 52.6693 156.379 52.627Q156.081 52.5063 155.941 52.3223C155.848 52.2038 155.802 52.0705 155.802 51.9224C155.802 51.6896 155.914 51.4865 156.138 51.313Q156.475 51.0527 157.262 51.0527Q157.928 51.0527 158.29 51.3447C158.535 51.5394 158.684 51.8102 158.734 52.1572L159.851 52.0049C159.78 51.569 159.648 51.222 159.458 50.9639C159.267 50.7015 158.971 50.4941 158.569 50.3418Q157.973 50.1133 157.179 50.1133Q156.652 50.1133 156.189 50.2529C155.884 50.3418 155.643 50.4518 155.465 50.583C155.228 50.7523 155.04 50.966 154.9 51.2241C154.765 51.478 154.697 51.7552 154.697 52.0557Q154.697 52.3527 154.786 52.6201Q154.846 52.7983 154.945 52.9634C155.114 53.2342 155.359 53.4479 155.681 53.6045C156.007 53.7568 156.589 53.9388 157.427 54.1504C158.049 54.307 158.438 54.436 158.595 54.5376C158.819 54.6857 158.931 54.8888 158.931 55.147C158.931 55.4347 158.804 55.6865 158.55 55.9023C158.296 56.1139 157.907 56.2197 157.382 56.2197Q156.601 56.2197 156.163 55.8579C155.876 55.6167 155.7 55.2697 155.637 54.8169ZM168.298 50.8623C167.604 51.4632 167.257 52.3879 167.257 53.6362C167.257 54.7746 167.547 55.6463 168.126 56.2515C168.71 56.8566 169.474 57.1592 170.418 57.1592C171.006 57.1592 171.548 57.0216 172.043 56.7466C172.542 56.4715 172.921 56.0864 173.179 55.5913C173.441 55.092 173.573 54.4085 173.573 53.541C173.573 52.4704 173.278 51.6325 172.69 51.0273C172.102 50.418 171.345 50.1133 170.418 50.1133C169.584 50.1133 168.877 50.363 168.298 50.8623ZM176.218 50.2656L176.218 57.0068L177.361 57.0068L177.361 53.3252C177.361 52.4619 177.536 51.8758 177.888 51.5669C178.243 51.258 178.664 51.1035 179.151 51.1035C179.456 51.1035 179.72 51.1733 179.944 51.313Q180.166 51.4443 180.3 51.6366Q180.373 51.7418 180.42 51.8652Q180.554 52.208 180.554 52.9062L180.554 57.0068L181.696 57.0068L181.696 52.8618C181.696 52.3328 181.675 51.9626 181.633 51.751C181.565 51.4251 181.447 51.1437 181.277 50.9067C181.108 50.6698 180.852 50.4793 180.509 50.3354C180.171 50.1873 179.798 50.1133 179.392 50.1133C178.457 50.1133 177.742 50.4836 177.247 51.2241L177.247 50.2656L176.218 50.2656ZM118.814 50.2656L118.814 57.0068L119.956 57.0068L119.956 50.2656L118.814 50.2656ZM85.6601 55.5977C85.3088 55.1829 85.1332 54.5418 85.1332 53.6743C85.1332 52.8068 85.3194 52.1466 85.6918 51.6938Q86.1198 51.1744 86.6426 51.0486Q86.8098 51.0083 86.9867 51.0083C87.4776 51.0083 87.8987 51.222 88.2499 51.6494Q88.7831 52.2905 88.7831 53.5791C88.7831 54.4805 88.6011 55.147 88.2372 55.5786C87.8775 56.006 87.4437 56.2197 86.9359 56.2197Q86.6503 56.2197 86.3969 56.1292Q85.986 55.9825 85.6601 55.5977ZM27.9916 52.9888L24.2274 52.9888Q24.2738 52.2728 24.6336 51.7909Q24.7172 51.6789 24.8178 51.5796C25.1775 51.2284 25.6197 51.0527 26.1444 51.0527C26.7242 51.0527 27.196 51.2728 27.56 51.7129C27.7969 51.9964 27.9408 52.4217 27.9916 52.9888ZM45.6406 52.9888L41.8765 52.9888Q41.9228 52.2728 42.2826 51.7909Q42.3663 51.6789 42.4668 51.5796C42.8265 51.2284 43.2687 51.0527 43.7935 51.0527C44.3732 51.0527 44.8451 51.2728 45.209 51.7129C45.446 51.9964 45.5898 52.4217 45.6406 52.9888ZM97.2623 52.9888L93.4981 52.9888Q93.5445 52.2728 93.9043 51.7909Q93.9879 51.6789 94.0885 51.5796C94.4482 51.2284 94.8904 51.0527 95.4151 51.0527C95.9949 51.0527 96.4667 51.2728 96.8307 51.7129C97.0676 51.9964 97.2115 52.4217 97.2623 52.9888ZM66.3289 55.5786C65.9523 55.147 65.764 54.4995 65.764 53.6362C65.764 52.7729 65.9523 52.1276 66.3289 51.7002C66.7055 51.2728 67.1795 51.0591 67.7508 51.0591C68.3136 51.0591 68.7833 51.2749 69.16 51.7065Q69.7312 52.3477 69.7312 53.5981C69.7312 54.4826 69.5429 55.1406 69.1663 55.5723C68.7897 56.0039 68.3178 56.2197 67.7508 56.2197C67.1795 56.2197 66.7055 56.006 66.3289 55.5786ZM147.741 55.5786C147.365 55.147 147.176 54.4995 147.176 53.6362C147.176 52.7729 147.365 52.1276 147.741 51.7002C148.118 51.2728 148.592 51.0591 149.163 51.0591Q149.564 51.0591 149.901 51.2047Q150.275 51.3661 150.572 51.7065Q151.144 52.3477 151.144 53.5981C151.144 54.4826 150.955 55.1406 150.579 55.5723C150.202 56.0039 149.73 56.2197 149.163 56.2197C148.592 56.2197 148.118 56.006 147.741 55.5786ZM168.996 55.5786C168.619 55.147 168.431 54.4995 168.431 53.6362C168.431 52.7729 168.619 52.1276 168.996 51.7002C169.373 51.2728 169.846 51.0591 170.418 51.0591Q170.818 51.0591 171.156 51.2047Q171.53 51.3661 171.827 51.7065Q172.398 52.3477 172.398 53.5981C172.398 54.4826 172.21 55.1406 171.833 55.5723C171.457 56.0039 170.985 56.2197 170.418 56.2197C169.846 56.2197 169.373 56.006 168.996 55.5786ZM140.1 55.9087L137.783 55.9087L137.783 52.7095L139.935 52.7095C140.528 52.7095 140.98 52.7624 141.293 52.8682C141.611 52.9697 141.858 53.1496 142.036 53.4077C142.214 53.6616 142.303 53.9621 142.303 54.3091C142.303 54.6053 142.241 54.8677 142.119 55.0962C141.996 55.3205 141.839 55.4919 141.649 55.6104C141.458 55.7288 141.222 55.8135 140.938 55.8643C140.777 55.8939 140.498 55.9087 140.1 55.9087Z" fill="#292929" fill-opacity="1.000000" fill-rule="evenodd"/>
	<path id="Title" d="M7.48438 28.3984C8.70312 28.9193 9.97396 29.1797 11.2969 29.1797Q14.2393 29.1797 16.4028 27.8816Q16.4911 27.8286 16.5781 27.7734C18.0573 26.8255 19.2448 25.2526 20.1406 23.0547L18.9688 22.4922C18.7188 23.1797 18.3958 23.8151 18 24.3984C17.6042 24.9818 17.1458 25.5026 16.625 25.9609C16.1042 26.3984 15.4896 26.7526 14.7812 27.0234C14.0729 27.2839 13.2969 27.4141 12.4531 27.4141Q11.1051 27.4141 9.95653 26.9355Q9.66725 26.815 9.39062 26.6641C8.48438 26.1641 7.69792 25.4714 7.03125 24.5859C6.36458 23.6901 5.84896 22.6536 5.48438 21.4766C5.13021 20.2891 4.95312 18.987 4.95312 17.5703Q4.95312 15.1641 5.46875 13.2109Q5.98438 11.2578 6.89062 9.99219Q7.81602 8.71787 9.06545 8.04745Q9.10289 8.02736 9.14062 8.00781C10.0156 7.5599 10.9583 7.33594 11.9688 7.33594Q13.1085 7.33594 14.0295 7.78467Q14.1818 7.85886 14.3281 7.94531C15.0156 8.34115 15.6094 8.89323 16.1094 9.60156Q16.7812 10.5391 17.2812 11.8984Q17.7812 13.2422 18.0312 14.3984L19.3125 14.3984L19.1719 6.49219L17.9219 6.49219L17.2812 7.55469C16.4792 7.0651 15.6354 6.6849 14.75 6.41406C13.8646 6.14323 12.875 6.00781 11.7812 6.00781Q10.1335 6.00781 8.63442 6.47976Q8.12908 6.63885 7.64062 6.85156Q6.60654 7.30189 5.71934 7.9525Q4.94424 8.52091 4.28125 9.24219C3.32292 10.2839 2.57292 11.5286 2.03125 12.9766Q1.21875 15.1328 1.21875 17.7891Q1.21875 20.4453 2.04688 22.5703Q2.875 24.6797 4.26562 26.1484Q5.23256 27.1583 6.39156 27.8432Q6.91814 28.1544 7.48438 28.3984ZM100.381 28.6641L109.584 28.6641L109.584 27.5547C109.324 27.5443 108.965 27.4922 108.506 27.3984Q107.834 27.2578 107.569 27.1172C107.215 26.9297 106.975 26.7109 106.85 26.4609C106.735 26.2109 106.678 25.9036 106.678 25.5391L106.678 9.55469C106.678 9.21094 106.735 8.89323 106.85 8.60156C106.975 8.3099 107.215 8.10156 107.569 7.97656Q107.881 7.86719 108.506 7.74219Q109.147 7.61719 109.584 7.60156L109.584 6.49219L100.381 6.49219L100.381 7.60156Q100.819 7.63281 101.412 7.78906C101.819 7.89323 102.162 8.01302 102.444 8.14844Q102.868 8.34708 103.078 8.68041Q103.116 8.74037 103.147 8.80469C103.282 9.07552 103.35 9.3776 103.35 9.71094L103.35 16.4297L92.9281 16.4297L92.9281 9.55469C92.9281 9.21094 92.9854 8.89323 93.1 8.60156C93.225 8.3099 93.4646 8.10156 93.8187 7.97656Q94.1313 7.86719 94.7562 7.74219Q95.3969 7.61719 95.8344 7.60156L95.8344 6.49219L86.6312 6.49219L86.6312 7.60156Q87.0687 7.63281 87.6625 7.78906C88.0687 7.89323 88.4125 8.01302 88.6937 8.14844Q89.1175 8.34708 89.328 8.68041Q89.3659 8.74037 89.3969 8.80469C89.5323 9.07552 89.6 9.3776 89.6 9.71094L89.6 25.7109C89.6 26.1172 89.5271 26.4505 89.3812 26.7109C89.2354 26.9609 89.0062 27.1484 88.6937 27.2734Q88.4281 27.3984 87.7094 27.4609Q87.0062 27.5234 86.6312 27.5547L86.6312 28.6641L95.8344 28.6641L95.8344 27.5547C95.574 27.5443 95.2146 27.4922 94.7562 27.3984Q94.0844 27.2578 93.8187 27.1172C93.4646 26.9297 93.225 26.7109 93.1 26.4609C92.9854 26.2109 92.9281 25.9036 92.9281 25.5391L92.9281 17.8203L103.35 17.8203L103.35 25.7109C103.35 26.1172 103.277 26.4505 103.131 26.7109C102.985 26.9609 102.756 27.1484 102.444 27.2734Q102.178 27.3984 101.459 27.4609Q100.756 27.5234 100.381 27.5547L100.381 28.6641ZM164.891 22.4141C164.662 21.9245 164.334 21.4922 163.907 21.1172C163.511 20.763 163.006 20.4401 162.391 20.1484C161.787 19.8568 161.141 19.6016 160.454 19.3828C159.756 19.1536 159.167 18.9505 158.688 18.7734C158.219 18.5859 157.829 18.388 157.516 18.1797C157.193 17.9609 156.949 17.6953 156.782 17.3828Q156.548 16.9141 156.548 16.2109C156.548 15.6068 156.792 15.0911 157.282 14.6641Q157.291 14.6561 157.3 14.6483Q158.032 14.0234 159.298 14.0234C160.339 14.0234 161.219 14.3724 161.938 15.0703C162.667 15.7578 163.141 16.6536 163.36 17.7578L164.438 17.7578L164.204 12.8047L163.079 12.8047L162.719 13.6172Q162.126 13.2891 161.173 13.0547C160.548 12.8984 159.933 12.8203 159.329 12.8203C157.756 12.8203 156.501 13.2578 155.563 14.1328C154.626 15.0078 154.157 16.0755 154.157 17.3359C154.157 18.0547 154.303 18.6797 154.594 19.2109C154.886 19.7422 155.261 20.1901 155.719 20.5547C156.146 20.8984 156.657 21.2005 157.251 21.4609C157.855 21.7109 158.402 21.9089 158.891 22.0547C159.506 22.2422 160.063 22.4349 160.563 22.6328C161.063 22.8203 161.485 23.0339 161.829 23.2734Q162.329 23.6328 162.579 24.1172C162.756 24.4297 162.844 24.8047 162.844 25.2422C162.844 26.0859 162.574 26.737 162.032 27.1953C161.49 27.6432 160.719 27.8672 159.719 27.8672Q158.841 27.8672 158.101 27.5467Q157.946 27.4796 157.798 27.3984C157.235 27.0859 156.751 26.7005 156.344 26.2422C155.959 25.8047 155.631 25.3151 155.36 24.7734C155.089 24.2318 154.912 23.7578 154.829 23.3516L153.751 23.3516L153.907 28.7109L155.079 28.7109L155.391 27.6953C155.714 27.9661 156.251 28.263 157.001 28.5859C157.761 28.9089 158.589 29.0703 159.485 29.0703C161.183 29.0703 162.563 28.6172 163.626 27.7109C164.699 26.8047 165.235 25.638 165.235 24.2109C165.235 23.5026 165.12 22.9036 164.891 22.4141ZM38.1075 24.0078C38.4512 22.9557 38.6231 21.888 38.6231 20.8047C38.6231 18.388 37.92 16.4557 36.5137 15.0078Q35.6891 14.1463 34.6876 13.6241Q33.1462 12.8203 31.1856 12.8203Q29.0229 12.8203 27.383 13.7462Q26.4401 14.2786 25.67 15.1172Q25.2006 15.6322 24.8364 16.2131Q23.5763 18.2233 23.5763 21.0234C23.5763 22.2734 23.7742 23.4036 24.17 24.4141C24.5763 25.4141 25.1179 26.263 25.795 26.9609Q26.4815 27.6683 27.2996 28.154Q27.7104 28.3979 28.1544 28.5859C29.0398 28.9505 29.9721 29.1328 30.9513 29.1328Q32.7169 29.1328 34.1387 28.5234C35.0867 28.1172 35.92 27.4974 36.6387 26.6641C37.2742 25.9349 37.7637 25.0495 38.1075 24.0078ZM128.739 24.0078C129.082 22.9557 129.254 21.888 129.254 20.8047C129.254 18.388 128.551 16.4557 127.145 15.0078C125.749 13.5495 123.973 12.8203 121.817 12.8203C119.546 12.8203 117.707 13.5859 116.301 15.1172C114.905 16.6484 114.207 18.6172 114.207 21.0234C114.207 22.2734 114.405 23.4036 114.801 24.4141C115.207 25.4141 115.749 26.263 116.426 26.9609C117.114 27.6693 117.9 28.2109 118.786 28.5859C119.671 28.9505 120.603 29.1328 121.582 29.1328Q123.348 29.1328 124.77 28.5234C125.718 28.1172 126.551 27.4974 127.27 26.6641C127.905 25.9349 128.395 25.0495 128.739 24.0078ZM180.592 27.9766C181.676 27.2474 182.54 26.2682 183.186 25.0391L182.092 24.3672C181.467 25.4922 180.816 26.2734 180.139 26.7109C179.473 27.138 178.676 27.3516 177.749 27.3516Q176.389 27.3516 175.405 26.8359C174.749 26.4818 174.217 26.0026 173.811 25.3984C173.395 24.7734 173.087 24.0495 172.889 23.2266Q172.608 21.9922 172.608 20.4766L182.811 20.4766L182.811 19.4453C182.811 18.5182 182.691 17.6589 182.452 16.8672C182.223 16.0755 181.869 15.388 181.389 14.8047C180.889 14.1901 180.238 13.7057 179.436 13.3516C178.634 12.9974 177.671 12.8203 176.546 12.8203C175.452 12.8203 174.462 13.0495 173.577 13.5078Q172.654 13.9803 171.94 14.6692Q171.638 14.9598 171.374 15.2891C170.759 16.0599 170.29 16.9297 169.967 17.8984C169.655 18.8568 169.499 19.8359 169.499 20.8359C169.499 21.9505 169.645 23.0078 169.936 24.0078Q170.389 25.5078 171.296 26.6328Q171.472 26.8516 171.667 27.0527Q172.472 27.8855 173.592 28.4141C174.53 28.8516 175.619 29.0703 176.858 29.0703C178.264 29.0703 179.509 28.7057 180.592 27.9766ZM144.909 28.7266L149.924 28.3828L149.924 27.3672C149.612 27.3568 149.325 27.3359 149.065 27.3047C148.805 27.263 148.581 27.1849 148.393 27.0703C148.133 26.8932 147.93 26.6797 147.784 26.4297C147.638 26.1797 147.565 25.8776 147.565 25.5234L147.565 13.2891L147.331 13.0703L141.737 13.4453L141.737 14.4609C142.195 14.4818 142.607 14.5078 142.971 14.5391C143.346 14.5599 143.628 14.6328 143.815 14.7578C144.075 14.9453 144.279 15.1745 144.424 15.4453C144.57 15.7057 144.643 16.0078 144.643 16.3516L144.643 25.0859C144.529 25.2943 144.362 25.5234 144.143 25.7734C143.935 26.013 143.69 26.2422 143.409 26.4609C143.107 26.7005 142.732 26.9089 142.284 27.0859C141.836 27.263 141.325 27.3516 140.753 27.3516C140.055 27.3516 139.456 27.0703 138.956 26.5078C138.456 25.9453 138.206 25.1068 138.206 23.9922L138.206 13.2891L137.971 13.0703L132.831 13.4453L132.831 14.4609C133.143 14.4818 133.44 14.5234 133.721 14.5859C134.003 14.638 134.237 14.7266 134.424 14.8516C134.695 15.0391 134.898 15.263 135.034 15.5234C135.18 15.7734 135.253 16.0859 135.253 16.4609L135.253 23.8359C135.253 25.5339 135.607 26.8307 136.315 27.7266C137.034 28.612 138.075 29.0547 139.44 29.0547C140.242 29.0547 140.862 28.9818 141.299 28.8359C141.737 28.6901 142.19 28.4766 142.659 28.1953Q143.268 27.8359 143.737 27.3984Q144.206 26.9453 144.581 26.5547L144.674 26.5547L144.674 28.5078L144.909 28.7266ZM42.5119 28.6641L54.9806 28.6641L54.9806 23.2266L54.0431 23.2266C53.9181 23.7266 53.7723 24.2422 53.6056 24.7734C53.4494 25.3047 53.314 25.7214 53.1994 26.0234C53.0848 26.3568 52.9181 26.6536 52.6994 26.9141Q52.6405 26.9876 52.5706 27.0485Q52.2691 27.3106 51.7619 27.3359C51.0535 27.3776 50.4702 27.4036 50.0119 27.4141C49.564 27.4245 49.1317 27.4297 48.715 27.4297L47.2619 27.4297C46.814 27.4193 46.4025 27.4089 46.0275 27.3984L54.8869 13.8984L54.8869 13.2578L43.1056 13.2578L43.1056 17.9922L44.0588 17.9922C44.2463 17.1172 44.465 16.4089 44.715 15.8672C44.9754 15.3255 45.2515 14.9974 45.5431 14.8828C45.9702 14.7057 46.439 14.6016 46.9494 14.5703C47.4598 14.5391 48.1681 14.5234 49.0744 14.5234L51.2306 14.5234L42.5119 27.8359L42.5119 28.6641ZM58.1662 32.4141C57.885 32.7474 57.7444 33.1745 57.7444 33.6953C57.7444 34.1953 57.9735 34.638 58.4319 35.0234C58.9006 35.4089 59.5412 35.6016 60.3537 35.6016C60.7704 35.6016 61.1715 35.5234 61.5569 35.3672C61.9527 35.2214 62.3902 34.9297 62.8694 34.4922C63.359 34.0234 63.859 33.3776 64.3694 32.5547C64.8902 31.7422 65.4787 30.6068 66.135 29.1484C66.635 28.0339 67.3642 26.2943 68.3225 23.9297C69.2912 21.5651 70.3954 18.9453 71.635 16.0703C71.885 15.5078 72.2652 15.0755 72.7756 14.7734C73.286 14.4609 73.6975 14.2786 74.01 14.2266L74.01 13.2578L68.2912 13.2578L68.2912 14.2578C68.7183 14.3099 69.1662 14.4557 69.635 14.6953C70.1142 14.9245 70.3537 15.1745 70.3537 15.4453C70.3537 15.6953 70.286 15.9974 70.1506 16.3516C70.0152 16.6953 69.911 16.9661 69.8381 17.1641C69.2131 18.7891 68.6454 20.2005 68.135 21.3984Q67.385 23.1797 66.6819 24.8516C66.234 23.6849 65.6037 22.1328 64.7912 20.1953C63.9787 18.2474 63.3746 16.7578 62.9787 15.7266C62.9371 15.5807 62.885 15.4297 62.8225 15.2734L62.7444 15.0391C62.7444 14.8307 62.9631 14.6693 63.4006 14.5547C63.8381 14.4297 64.2131 14.362 64.5256 14.3516L64.5256 13.2578L57.4944 13.2578L57.4944 14.2891Q58.1975 14.3984 58.9006 14.8047C59.3694 15.0651 59.7027 15.4349 59.9006 15.9141C60.7756 17.9974 61.6142 20.013 62.4162 21.9609C63.2183 23.9089 64.1142 26.1172 65.1037 28.5859C64.7808 29.4818 64.2548 30.5234 63.5256 31.7109C62.8069 32.8984 62.1871 33.6328 61.6662 33.9141C61.5621 33.737 61.4215 33.513 61.2444 33.2422C61.0673 32.9714 60.9006 32.7578 60.7444 32.6016C60.5569 32.4036 60.3433 32.2422 60.1037 32.1172C59.8642 31.9922 59.5777 31.9297 59.2444 31.9297C58.8173 31.9297 58.4579 32.0911 58.1662 32.4141ZM179.577 17.2891C179.681 17.9557 179.733 18.5807 179.733 19.1641L172.608 19.1641Q172.702 16.7266 173.78 15.3672C174.509 14.4505 175.421 13.9922 176.514 13.9922C177.171 13.9922 177.707 14.1432 178.124 14.4453Q178.326 14.5919 178.5 14.7663Q178.865 15.131 179.108 15.6172C179.327 16.0651 179.483 16.6224 179.577 17.2891ZM35.1544 18.3672C35.3106 19.2318 35.3887 20.0547 35.3887 20.8359C35.3887 23.0547 35.0085 24.7943 34.2481 26.0547Q33.535 27.2368 32.5041 27.6798Q31.8863 27.9453 31.1544 27.9453C30.3627 27.9453 29.696 27.7578 29.1544 27.3828C28.6231 26.9974 28.1804 26.4714 27.8263 25.8047C27.4721 25.138 27.2117 24.3828 27.045 23.5391Q26.8106 22.2578 26.8106 20.7578C26.8106 19.9974 26.8783 19.2109 27.0138 18.3984C27.1492 17.5859 27.3835 16.862 27.7169 16.2266C28.071 15.5391 28.5294 14.9974 29.0919 14.6016Q29.1962 14.5295 29.3055 14.4662Q30.0973 14.0078 31.1544 14.0078C31.9356 14.0078 32.5971 14.2057 33.1387 14.6016Q33.2299 14.6664 33.3171 14.7362Q34.0073 15.2884 34.4512 16.1484C34.7637 16.7526 34.9981 17.4922 35.1544 18.3672ZM125.786 18.3672C125.942 19.2318 126.02 20.0547 126.02 20.8359C126.02 23.0547 125.64 24.7943 124.879 26.0547Q124.166 27.2368 123.135 27.6798Q122.518 27.9453 121.786 27.9453C120.994 27.9453 120.327 27.7578 119.786 27.3828C119.254 26.9974 118.812 26.4714 118.457 25.8047C118.103 25.138 117.843 24.3828 117.676 23.5391Q117.442 22.2578 117.442 20.7578C117.442 19.9974 117.51 19.2109 117.645 18.3984C117.78 17.5859 118.015 16.862 118.348 16.2266C118.702 15.5391 119.161 14.9974 119.723 14.6016Q119.827 14.5295 119.937 14.4662Q120.728 14.0078 121.786 14.0078C122.567 14.0078 123.228 14.2057 123.77 14.6016Q123.861 14.6664 123.948 14.7361Q124.639 15.2883 125.082 16.1484C125.395 16.7526 125.629 17.4922 125.786 18.3672Z" fill="#545454" fill-opacity="1.000000" fill-rule="evenodd"/>
</svg>
